<svg width="589" height="500" viewBox="0 0 589 500" fill="none" xmlns="http://www.w3.org/2000/svg">
<path d="M469.83 192.39C466.22 190.39 464.57 192.06 463.26 190.39C461.95 188.72 466.87 184.48 457.02 180.21C457.02 180.21 456.36 171.02 442.9 170.69C429.44 170.36 433.05 179.88 429.44 182.18C425.83 184.48 424.84 180.87 421.23 183.18C417.62 185.49 419.23 190.07 416.31 190.73C413.61 191.33 410.1 188.39 406.76 189.61C405.646 185.893 404.102 182.319 402.16 178.96C389.97 158.03 363.39 148.38 342.58 142.49C276.35 123.76 260.33 169.75 219.28 195.08C178.23 220.41 129.98 197.08 106.54 215.27C83.1001 233.46 75.2801 278.65 86.7201 299.49C98.1601 320.33 123.46 327.12 127.37 337.11C131.28 347.1 130.06 350.37 130.06 350.37H437.06C439.46 350.37 445.8 337.52 447.06 335.02C454.14 320.81 455 306.71 442.57 295.79C430.57 285.25 409.82 278.62 408.36 259.03C406.9 239.44 411.92 217.17 408.53 197.3H472.43C472.43 197.3 473.44 194.36 469.83 192.39ZM217.18 306.3H134.11C134.11 306.3 136.41 304.66 138.38 303.3C140.35 301.94 143.63 303.3 145.27 303.3C146.91 303.3 146.91 301.3 150.53 299.04C154.15 296.78 158.08 300.35 161.03 299.69C163.98 299.03 162.35 294.44 165.96 292.14C169.57 289.84 170.56 293.45 174.17 291.14C177.78 288.83 174.17 279.31 187.63 279.64C201.09 279.97 201.75 289.17 201.75 289.17C211.6 293.43 206.67 297.7 207.99 299.34C209.31 300.98 210.94 299.34 214.56 301.34C218.18 303.34 217.18 306.3 217.18 306.3ZM351.91 160.07H298.6C298.6 160.07 300.07 159.07 301.34 158.18C302.61 157.29 304.71 158.18 305.76 158.18C306.81 158.18 306.82 156.91 309.13 155.44C311.44 153.97 313.98 156.28 315.88 155.86C317.78 155.44 316.72 152.49 319.04 151.01C321.36 149.53 321.99 151.85 324.31 150.38C326.63 148.91 324.31 142.79 332.95 143C341.59 143.21 342.01 149.11 342.01 149.11C348.33 151.85 345.17 154.59 346.01 155.65C346.85 156.71 347.91 155.65 350.23 156.91C352.55 158.17 351.91 160.07 351.91 160.07Z" fill="#FFD700"/>
<path d="M253.83 109C250.21 107 248.57 108.67 247.26 107C245.95 105.33 250.87 101.09 241.02 96.82C241.02 96.82 240.36 87.63 226.9 87.3C213.44 86.97 217.05 96.49 213.44 98.79C209.83 101.09 208.84 97.48 205.23 99.79C201.62 102.1 203.23 106.68 200.3 107.34C197.37 108 193.41 104.34 189.8 106.68C186.19 109.02 186.18 110.95 184.54 110.95C182.9 110.95 179.62 109.64 177.65 110.95C175.68 112.26 173.38 113.95 173.38 113.95H256.45C256.45 113.95 257.44 111 253.83 109Z" fill="#FFD700"/>
<g opacity="0.7">
<path d="M469.83 192.39C466.22 190.39 464.57 192.06 463.26 190.39C461.95 188.72 466.87 184.48 457.02 180.21C457.02 180.21 456.36 171.02 442.9 170.69C429.44 170.36 433.05 179.88 429.44 182.18C425.83 184.48 424.84 180.87 421.23 183.18C417.62 185.49 419.23 190.07 416.31 190.73C413.61 191.33 410.1 188.39 406.76 189.61C405.646 185.893 404.102 182.319 402.16 178.96C389.97 158.03 363.39 148.38 342.58 142.49C276.35 123.76 260.33 169.75 219.28 195.08C178.23 220.41 129.98 197.08 106.54 215.27C83.1001 233.46 75.2801 278.65 86.7201 299.49C98.1601 320.33 123.46 327.12 127.37 337.11C131.28 347.1 130.06 350.37 130.06 350.37H437.06C439.46 350.37 445.8 337.52 447.06 335.02C454.14 320.81 455 306.71 442.57 295.79C430.57 285.25 409.82 278.62 408.36 259.03C406.9 239.44 411.92 217.17 408.53 197.3H472.43C472.43 197.3 473.44 194.36 469.83 192.39ZM217.18 306.3H134.11C134.11 306.3 136.41 304.66 138.38 303.3C140.35 301.94 143.63 303.3 145.27 303.3C146.91 303.3 146.91 301.3 150.53 299.04C154.15 296.78 158.08 300.35 161.03 299.69C163.98 299.03 162.35 294.44 165.96 292.14C169.57 289.84 170.56 293.45 174.17 291.14C177.78 288.83 174.17 279.31 187.63 279.64C201.09 279.97 201.75 289.17 201.75 289.17C211.6 293.43 206.67 297.7 207.99 299.34C209.31 300.98 210.94 299.34 214.56 301.34C218.18 303.34 217.18 306.3 217.18 306.3ZM351.91 160.07H298.6C298.6 160.07 300.07 159.07 301.34 158.18C302.61 157.29 304.71 158.18 305.76 158.18C306.81 158.18 306.82 156.91 309.13 155.44C311.44 153.97 313.98 156.28 315.88 155.86C317.78 155.44 316.72 152.49 319.04 151.01C321.36 149.53 321.99 151.85 324.31 150.38C326.63 148.91 324.31 142.79 332.95 143C341.59 143.21 342.01 149.11 342.01 149.11C348.33 151.85 345.17 154.59 346.01 155.65C346.85 156.71 347.91 155.65 350.23 156.91C352.55 158.17 351.91 160.07 351.91 160.07Z" fill="white"/>
<path d="M253.83 109C250.21 107 248.57 108.67 247.26 107C245.95 105.33 250.87 101.09 241.02 96.82C241.02 96.82 240.36 87.63 226.9 87.3C213.44 86.97 217.05 96.49 213.44 98.79C209.83 101.09 208.84 97.48 205.23 99.79C201.62 102.1 203.23 106.68 200.3 107.34C197.37 108 193.41 104.34 189.8 106.68C186.19 109.02 186.18 110.95 184.54 110.95C182.9 110.95 179.62 109.64 177.65 110.95C175.68 112.26 173.38 113.95 173.38 113.95H256.45C256.45 113.95 257.44 111 253.83 109Z" fill="white"/>
</g>
<path d="M463.74 285.82L473.5 311.97H466.85L460.2 291.58L463.74 285.82Z" fill="white" stroke="#2E353A" stroke-width="0.887535" stroke-linecap="round" stroke-linejoin="round"/>
<path d="M469.06 350.39H381.15V305.47L462.77 293L469.06 310.34V350.39Z" fill="#2E353A"/>
<path d="M393.26 214.45H278.6V350.39H393.26V214.45Z" fill="#2E353A"/>
<path d="M271.54 225.44L266.66 219.12L336.57 165.15L405.2 218.14L400.33 224.46L336.57 175.23L271.54 225.44Z" fill="#2E353A"/>
<path d="M372.28 214.45H257.62V350.39H372.28V214.45Z" fill="white" stroke="#2E353A" stroke-width="0.887535" stroke-linecap="round" stroke-linejoin="round"/>
<path d="M314.95 170.19L257.62 214.45H372.28L314.95 170.19Z" fill="white" stroke="#2E353A" stroke-width="0.887535" stroke-linejoin="round"/>
<g style="mix-blend-mode:multiply">
<path d="M314.95 170.19L257.62 214.45V224.53L270.68 214.45L314.95 180.27L359.23 214.45L372.28 224.53V214.45L314.95 170.19Z" fill="#FFD700"/>
</g>
<path d="M460.2 305.47H372.28V350.39H460.2V305.47Z" fill="white" stroke="#2E353A" stroke-width="0.887535" stroke-linecap="round" stroke-linejoin="round"/>
<path d="M451.34 305.47H381.15V350.39H451.34V305.47Z" fill="#FFD700" stroke="#2E353A" stroke-width="0.887535" stroke-linecap="round" stroke-linejoin="round"/>
<g style="mix-blend-mode:multiply">
<path d="M460.2 305.47H372.28V315.1H460.2V305.47Z" fill="#FFD700"/>
</g>
<path d="M381.15 318.62H451.33" stroke="#2E353A" stroke-width="0.887535" stroke-linecap="round" stroke-linejoin="round"/>
<path d="M381.15 325.27H451.33" stroke="#2E353A" stroke-width="0.887535" stroke-linecap="round" stroke-linejoin="round"/>
<path d="M381.15 331.92H451.33" stroke="#2E353A" stroke-width="0.887535" stroke-linecap="round" stroke-linejoin="round"/>
<path d="M381.15 338.57H451.33" stroke="#2E353A" stroke-width="0.887535" stroke-linecap="round" stroke-linejoin="round"/>
<path d="M381.15 345.22H451.33" stroke="#2E353A" stroke-width="0.887535" stroke-linecap="round" stroke-linejoin="round"/>
<path d="M290.13 300.15H267.08V350.39H290.13V300.15Z" fill="#2E353A"/>
<path d="M325.29 300.15H302.24V335.02H325.29V300.15Z" fill="white" stroke="#2E353A" stroke-width="0.887535" stroke-linecap="round" stroke-linejoin="round"/>
<path d="M325.29 316.11H302.24V319.07H325.29V316.11Z" fill="#2E353A"/>
<path d="M315.25 300.15H312.29V335.02H315.25V300.15Z" fill="#2E353A"/>
<path d="M367.55 300.15H344.5V335.02H367.55V300.15Z" fill="white" stroke="#2E353A" stroke-width="0.887535" stroke-linecap="round" stroke-linejoin="round"/>
<path d="M367.55 316.11H344.5V319.07H367.55V316.11Z" fill="#2E353A"/>
<path d="M357.51 300.15H354.55V335.02H357.51V300.15Z" fill="#2E353A"/>
<path d="M337.85 300.15H333.43V350.39H337.85V300.15Z" fill="white" stroke="#2E353A" stroke-width="0.887535" stroke-linecap="round" stroke-linejoin="round"/>
<path d="M299.21 300.15H294.79V350.39H299.21V300.15Z" fill="white" stroke="#2E353A" stroke-width="0.887535" stroke-linecap="round" stroke-linejoin="round"/>
<path d="M367.55 302.22H262.94V308.72H367.55V302.22Z" fill="#2E353A"/>
<path d="M367.55 298.97H262.94V305.47H367.55V298.97Z" fill="#FFD700" stroke="#2E353A" stroke-width="0.887535" stroke-linecap="round" stroke-linejoin="round"/>
<path d="M249.92 225.44L245.04 219.12L314.95 165.15L383.58 218.14L378.71 224.46L314.95 175.23L249.92 225.44Z" fill="white" stroke="#2E353A" stroke-width="0.887535" stroke-linejoin="round"/>
<path d="M460.2 311.97H363.54L372.41 285.82H463.74L460.2 311.97Z" fill="#2E353A"/>
<path d="M383.58 218.14H403.38L336.57 165.15H314.95L383.58 218.14Z" fill="#2E353A"/>
<path d="M378.71 224.46H400.33L405.2 218.14H383.58L378.71 224.46Z" fill="#2E353A"/>
<path d="M279.49 234.55H267.08V254.65H279.49V234.55Z" fill="white" stroke="#2E353A" stroke-width="0.887535" stroke-linecap="round" stroke-linejoin="round"/>
<path d="M279.49 244.6H267.08V254.65H279.49V244.6Z" fill="#2E353A"/>
<path d="M279.49 243.48H267.08V245.72H279.49V243.48Z" fill="white" stroke="#2E353A" stroke-width="0.887535" stroke-linecap="round" stroke-linejoin="round"/>
<path d="M279.49 263.51H267.08V283.61H279.49V263.51Z" fill="white" stroke="#2E353A" stroke-width="0.887535" stroke-linecap="round" stroke-linejoin="round"/>
<path d="M279.49 273.46H267.08V283.6H279.49V273.46Z" fill="#2E353A"/>
<path d="M363.41 234.55H351V254.65H363.41V234.55Z" fill="white" stroke="#2E353A" stroke-width="0.887535" stroke-linecap="round" stroke-linejoin="round"/>
<path d="M363.41 244.6H351V254.65H363.41V244.6Z" fill="#2E353A"/>
<path d="M363.41 263.51H351V283.61H363.41V263.51Z" fill="white" stroke="#2E353A" stroke-width="0.887535" stroke-linecap="round" stroke-linejoin="round"/>
<path d="M363.41 272.34H351V283.6H363.41V272.34Z" fill="#2E353A"/>
<path d="M319.97 234.55H307.56V254.65H319.97V234.55Z" fill="white" stroke="#2E353A" stroke-width="0.887535" stroke-linecap="round" stroke-linejoin="round"/>
<path d="M319.97 244.6H307.56V254.65H319.97V244.6Z" fill="#2E353A"/>
<path d="M319.97 263.51H307.56V283.61H319.97V263.51Z" fill="white" stroke="#2E353A" stroke-width="0.887535" stroke-linecap="round" stroke-linejoin="round"/>
<path d="M319.97 272.34H307.56V283.6H319.97V272.34Z" fill="#2E353A"/>
<path d="M319.97 243.48H307.56V245.72H319.97V243.48Z" fill="white" stroke="#2E353A" stroke-width="0.887535" stroke-linecap="round" stroke-linejoin="round"/>
<path d="M363.41 243.48H351V245.72H363.41V243.48Z" fill="white" stroke="#2E353A" stroke-width="0.887535" stroke-linecap="round" stroke-linejoin="round"/>
<path d="M279.49 271.22H267.08V273.46H279.49V271.22Z" fill="white" stroke="#2E353A" stroke-width="0.887535" stroke-linecap="round" stroke-linejoin="round"/>
<path d="M319.97 271.22H307.56V273.46H319.97V271.22Z" fill="white" stroke="#2E353A" stroke-width="0.887535" stroke-linecap="round" stroke-linejoin="round"/>
<path d="M363.41 271.22H351V273.46H363.41V271.22Z" fill="white" stroke="#2E353A" stroke-width="0.887535" stroke-linecap="round" stroke-linejoin="round"/>
<path d="M267.73 220.51V225.44" stroke="#2E353A" stroke-width="0.887535" stroke-linecap="round" stroke-linejoin="round"/>
<path d="M276.6 220.51V225.44" stroke="#2E353A" stroke-width="0.887535" stroke-linecap="round" stroke-linejoin="round"/>
<path d="M271.54 225.44V230.37" stroke="#2E353A" stroke-width="0.887535" stroke-linecap="round" stroke-linejoin="round"/>
<path d="M281.67 225.44V230.37" stroke="#2E353A" stroke-width="0.887535" stroke-linecap="round" stroke-linejoin="round"/>
<path d="M263.8 225.44H284.06" stroke="#2E353A" stroke-width="0.887535" stroke-linecap="round" stroke-linejoin="round"/>
<path d="M267.73 286.36V291.29" stroke="#2E353A" stroke-width="0.887535" stroke-linecap="round" stroke-linejoin="round"/>
<path d="M276.6 286.36V291.29" stroke="#2E353A" stroke-width="0.887535" stroke-linecap="round" stroke-linejoin="round"/>
<path d="M271.54 291.29V296.22" stroke="#2E353A" stroke-width="0.887535" stroke-linecap="round" stroke-linejoin="round"/>
<path d="M281.67 291.29V296.22" stroke="#2E353A" stroke-width="0.887535" stroke-linecap="round" stroke-linejoin="round"/>
<path d="M263.8 291.29H284.06" stroke="#2E353A" stroke-width="0.887535" stroke-linecap="round" stroke-linejoin="round"/>
<path d="M285.7 239.66V244.6" stroke="#2E353A" stroke-width="0.887535" stroke-linecap="round" stroke-linejoin="round"/>
<path d="M294.57 239.66V244.6" stroke="#2E353A" stroke-width="0.887535" stroke-linecap="round" stroke-linejoin="round"/>
<path d="M289.51 244.6V249.53" stroke="#2E353A" stroke-width="0.887535" stroke-linecap="round" stroke-linejoin="round"/>
<path d="M299.64 244.6V249.53" stroke="#2E353A" stroke-width="0.887535" stroke-linecap="round" stroke-linejoin="round"/>
<path d="M281.77 244.6H302.03" stroke="#2E353A" stroke-width="0.887535" stroke-linecap="round" stroke-linejoin="round"/>
<path d="M285.7 249.53H302.03" stroke="#2E353A" stroke-width="0.887535" stroke-linecap="round" stroke-linejoin="round"/>
<path d="M285.7 249.71V254.64" stroke="#2E353A" stroke-width="0.887535" stroke-linecap="round" stroke-linejoin="round"/>
<path d="M294.57 249.71V254.64" stroke="#2E353A" stroke-width="0.887535" stroke-linecap="round" stroke-linejoin="round"/>
<path d="M289.51 254.64V259.57" stroke="#2E353A" stroke-width="0.887535" stroke-linecap="round" stroke-linejoin="round"/>
<path d="M299.64 254.64V259.57" stroke="#2E353A" stroke-width="0.887535" stroke-linecap="round" stroke-linejoin="round"/>
<path d="M281.77 254.64H302.03" stroke="#2E353A" stroke-width="0.887535" stroke-linecap="round" stroke-linejoin="round"/>
<path d="M329.88 272.56V277.49" stroke="#2E353A" stroke-width="0.887535" stroke-linecap="round" stroke-linejoin="round"/>
<path d="M338.75 272.56V277.49" stroke="#2E353A" stroke-width="0.887535" stroke-linecap="round" stroke-linejoin="round"/>
<path d="M333.69 277.49V282.42" stroke="#2E353A" stroke-width="0.887535" stroke-linecap="round" stroke-linejoin="round"/>
<path d="M343.82 277.49V282.42" stroke="#2E353A" stroke-width="0.887535" stroke-linecap="round" stroke-linejoin="round"/>
<path d="M325.95 277.49H346.21" stroke="#2E353A" stroke-width="0.887535" stroke-linecap="round" stroke-linejoin="round"/>
<path d="M329.88 282.42H346.21" stroke="#2E353A" stroke-width="0.887535" stroke-linecap="round" stroke-linejoin="round"/>
<path d="M329.88 282.61V287.54" stroke="#2E353A" stroke-width="0.887535" stroke-linecap="round" stroke-linejoin="round"/>
<path d="M338.75 282.61V287.54" stroke="#2E353A" stroke-width="0.887535" stroke-linecap="round" stroke-linejoin="round"/>
<path d="M333.69 287.54V292.47" stroke="#2E353A" stroke-width="0.887535" stroke-linecap="round" stroke-linejoin="round"/>
<path d="M343.82 287.54V292.47" stroke="#2E353A" stroke-width="0.887535" stroke-linecap="round" stroke-linejoin="round"/>
<path d="M325.95 287.54H346.21" stroke="#2E353A" stroke-width="0.887535" stroke-linecap="round" stroke-linejoin="round"/>
<path d="M92 364.32C111.66 372.45 162.18 363.65 157 373.13C151.82 382.61 112.25 379.05 101 389.3C89.75 399.55 140.93 398.73 139.12 401.84C137.31 404.95 92.28 407.08 95.24 411.27H398.66C399.15 407.99 395.66 404.01 389.96 401.27C344.78 399.42 191.68 392.64 207.72 386.09C226.52 378.43 287.9 370.77 299.12 364.77C310.34 358.77 260.64 358.1 252.32 355.44C249.64 354.58 249.32 353.74 250.19 353.01L251.62 353.1V352.19C253.892 351.367 256.236 350.754 258.62 350.36H251.62V348.63L250.62 349.26L248.91 350.36H248.36C249.061 348.195 249.536 345.963 249.78 343.7C250.17 339.79 244.68 348.63 244.68 348.63C244.68 348.63 245.46 345.63 244.68 343.7C243.9 341.77 241.54 346.31 241.54 346.31C241.54 346.31 244.29 335.46 241.54 328.41C238.79 321.36 235.69 346.31 235.69 346.31C235.69 346.31 235.27 336.63 231.74 336.44C228.88 336.28 230.65 342.86 231.43 345.36C230.825 343.957 229.932 342.697 228.81 341.66C226.28 339.24 228.81 347.25 228.81 347.25C228.81 347.25 227.81 344.87 221.2 343.7C214.59 342.53 223.9 348.88 223.9 348.88C221.035 348.058 218.127 347.39 215.19 346.88C213.73 346.64 213.61 347 214.09 347.6L213.14 348.21L210.08 350.21C211.082 347.274 211.753 344.235 212.08 341.15C212.58 336.15 205.59 347.43 205.59 347.43C205.59 347.43 206.59 343.64 205.59 341.15C204.59 338.66 201.59 344.47 201.59 344.47C201.59 344.47 205.09 330.66 201.59 321.68C198.09 312.7 194.14 344.47 194.14 344.47C194.14 344.47 193.6 332.16 189.14 331.91C185.51 331.71 187.74 340.02 188.74 343.23C187.97 341.459 186.84 339.869 185.42 338.56C182.19 335.48 185.42 345.67 185.42 345.67C185.42 345.67 184.15 342.67 175.73 341.15C167.31 339.63 179.16 347.75 179.16 347.75C175.512 346.704 171.81 345.856 168.07 345.21C162.47 344.29 172.33 350.38 172.33 350.38H98C98 350.38 72.36 356.2 92 364.32ZM214.42 348C215.423 348.888 216.497 349.694 217.63 350.41H214.42V348Z" fill="#FFD700"/>
<path d="M334.57 365.53C323.21 370.79 295 376.31 295 376.31C290.51 376.92 296.59 382.67 327.77 379.82L381.13 350.39H278.88C282.3 352.15 306.66 356.21 320.52 356.21C334.38 356.21 345.93 360.26 334.57 365.53Z" fill="#FFD700"/>
<path d="M416.26 350.39H436.42C426.3 350 416.26 350.39 416.26 350.39Z" fill="#FFD700"/>
<path d="M449.52 351.56L401.63 382.42C407.7 382.19 414.05 382.04 420.2 381.89C446.73 381.25 437.1 369.74 438.9 365.68C440.7 361.62 455.76 362.29 456.96 355.52C457.3 353.6 454.17 352.36 449.52 351.56Z" fill="#FFD700"/>
<g opacity="0.3">
<path d="M92 364.32C111.66 372.45 162.18 363.65 157 373.13C151.82 382.61 112.25 379.05 101 389.3C89.75 399.55 140.93 398.73 139.12 401.84C137.31 404.95 92.28 407.08 95.24 411.27H398.66C399.15 407.99 395.66 404.01 389.96 401.27C344.78 399.42 191.68 392.64 207.72 386.09C226.52 378.43 287.9 370.77 299.12 364.77C310.34 358.77 260.64 358.1 252.32 355.44C249.64 354.58 249.32 353.74 250.19 353.01L251.62 353.1V352.19C253.892 351.367 256.236 350.754 258.62 350.36H251.62V348.63L250.62 349.26L248.91 350.36H248.36C249.061 348.195 249.536 345.963 249.78 343.7C250.17 339.79 244.68 348.63 244.68 348.63C244.68 348.63 245.46 345.63 244.68 343.7C243.9 341.77 241.54 346.31 241.54 346.31C241.54 346.31 244.29 335.46 241.54 328.41C238.79 321.36 235.69 346.31 235.69 346.31C235.69 346.31 235.27 336.63 231.74 336.44C228.88 336.28 230.65 342.86 231.43 345.36C230.825 343.957 229.932 342.697 228.81 341.66C226.28 339.24 228.81 347.25 228.81 347.25C228.81 347.25 227.81 344.87 221.2 343.7C214.59 342.53 223.9 348.88 223.9 348.88C221.035 348.058 218.127 347.39 215.19 346.88C213.73 346.64 213.61 347 214.09 347.6L213.14 348.21L210.08 350.21C211.082 347.274 211.753 344.235 212.08 341.15C212.58 336.15 205.59 347.43 205.59 347.43C205.59 347.43 206.59 343.64 205.59 341.15C204.59 338.66 201.59 344.47 201.59 344.47C201.59 344.47 205.09 330.66 201.59 321.68C198.09 312.7 194.14 344.47 194.14 344.47C194.14 344.47 193.6 332.16 189.14 331.91C185.51 331.71 187.74 340.02 188.74 343.23C187.97 341.459 186.84 339.869 185.42 338.56C182.19 335.48 185.42 345.67 185.42 345.67C185.42 345.67 184.15 342.67 175.73 341.15C167.31 339.63 179.16 347.75 179.16 347.75C175.512 346.704 171.81 345.856 168.07 345.21C162.47 344.29 172.33 350.38 172.33 350.38H98C98 350.38 72.36 356.2 92 364.32ZM214.42 348C215.423 348.888 216.497 349.694 217.63 350.41H214.42V348Z" fill="white"/>
<path d="M334.57 365.53C323.21 370.79 295 376.31 295 376.31C290.51 376.92 296.59 382.67 327.77 379.82L381.13 350.39H278.88C282.3 352.15 306.66 356.21 320.52 356.21C334.38 356.21 345.93 360.26 334.57 365.53Z" fill="white"/>
<path d="M416.26 350.39H436.42C426.3 350 416.26 350.39 416.26 350.39Z" fill="white"/>
<path d="M449.52 351.56L401.63 382.42C407.7 382.19 414.05 382.04 420.2 381.89C446.73 381.25 437.1 369.74 438.9 365.68C440.7 361.62 455.76 362.29 456.96 355.52C457.3 353.6 454.17 352.36 449.52 351.56Z" fill="white"/>
</g>
<path d="M156.31 182.2V262.86H273.64V182.2H156.31ZM167.21 192.11C166.569 192.11 165.943 191.92 165.41 191.564C164.877 191.208 164.462 190.702 164.217 190.11C163.971 189.518 163.907 188.866 164.032 188.238C164.157 187.609 164.466 187.032 164.919 186.579C165.372 186.126 165.949 185.817 166.578 185.692C167.206 185.567 167.858 185.631 168.45 185.877C169.042 186.122 169.548 186.537 169.904 187.07C170.26 187.603 170.45 188.229 170.45 188.87C170.45 189.729 170.109 190.553 169.501 191.161C168.893 191.769 168.069 192.11 167.21 192.11ZM262.63 192.11C261.989 192.11 261.363 191.92 260.83 191.564C260.297 191.208 259.882 190.702 259.637 190.11C259.391 189.518 259.327 188.866 259.452 188.238C259.577 187.609 259.886 187.032 260.339 186.579C260.792 186.126 261.369 185.817 261.998 185.692C262.626 185.567 263.278 185.631 263.87 185.877C264.462 186.122 264.968 186.537 265.324 187.07C265.68 187.603 265.87 188.229 265.87 188.87C265.867 189.728 265.525 190.551 264.918 191.158C264.311 191.765 263.489 192.107 262.63 192.11Z" fill="#FFD700" stroke="#2E353A" stroke-miterlimit="10"/>
<path d="M265.87 188.87C265.87 189.511 265.68 190.137 265.324 190.67C264.968 191.203 264.462 191.618 263.87 191.863C263.278 192.108 262.626 192.173 261.998 192.048C261.369 191.923 260.792 191.614 260.339 191.161C259.886 190.708 259.577 190.13 259.452 189.502C259.327 188.873 259.391 188.222 259.637 187.63C259.882 187.038 260.297 186.532 260.83 186.176C261.363 185.82 261.989 185.63 262.63 185.63H167.21C167.851 185.63 168.477 185.82 169.01 186.176C169.543 186.532 169.958 187.038 170.203 187.63C170.449 188.222 170.513 188.873 170.388 189.502C170.263 190.13 169.954 190.708 169.501 191.161C169.048 191.614 168.471 191.923 167.842 192.048C167.214 192.173 166.562 192.108 165.97 191.863C165.378 191.618 164.872 191.203 164.516 190.67C164.16 190.137 163.97 189.511 163.97 188.87C163.97 188.011 164.311 187.186 164.919 186.579C165.527 185.971 166.351 185.63 167.21 185.63H159.69V258.41H269.15V185.63H262.63C263.489 185.63 264.313 185.971 264.921 186.579C265.529 187.186 265.87 188.011 265.87 188.87Z" fill="#2E353A"/>
<path d="M167.21 151C166.279 151.002 165.369 151.28 164.596 151.799C163.823 152.317 163.221 153.054 162.866 153.914C162.511 154.775 162.419 155.722 162.602 156.635C162.785 157.548 163.234 158.386 163.893 159.044C164.552 159.702 165.391 160.149 166.305 160.33C167.218 160.511 168.165 160.417 169.025 160.061C169.885 159.704 170.62 159.1 171.137 158.326C171.654 157.551 171.93 156.641 171.93 155.71C171.93 155.091 171.808 154.477 171.571 153.905C171.333 153.333 170.985 152.813 170.547 152.376C170.109 151.939 169.588 151.592 169.016 151.356C168.443 151.12 167.829 150.999 167.21 151ZM167.21 158.85C166.589 158.848 165.983 158.662 165.468 158.316C164.953 157.97 164.552 157.479 164.316 156.905C164.08 156.331 164.019 155.7 164.142 155.091C164.264 154.483 164.564 153.924 165.003 153.486C165.443 153.048 166.002 152.75 166.611 152.63C167.22 152.509 167.851 152.572 168.424 152.81C168.997 153.048 169.487 153.45 169.832 153.967C170.176 154.483 170.36 155.089 170.36 155.71C170.363 156.125 170.283 156.537 170.126 156.922C169.969 157.306 169.737 157.656 169.444 157.95C169.152 158.245 168.804 158.479 168.42 158.638C168.037 158.798 167.625 158.88 167.21 158.88V158.85Z" fill="white" stroke="#2E353A" stroke-width="0.916642" stroke-linecap="round" stroke-linejoin="round"/>
<path d="M167.21 162.31C166.276 162.31 165.363 162.587 164.587 163.106C163.81 163.625 163.205 164.363 162.848 165.226C162.491 166.089 162.398 167.039 162.581 167.955C162.764 168.87 163.215 169.711 163.876 170.371C164.537 171.031 165.379 171.48 166.295 171.661C167.212 171.842 168.161 171.747 169.023 171.388C169.885 171.029 170.622 170.423 171.139 169.645C171.657 168.868 171.932 167.954 171.93 167.02C171.93 166.401 171.808 165.787 171.57 165.215C171.333 164.643 170.985 164.124 170.547 163.686C170.108 163.249 169.588 162.902 169.015 162.666C168.443 162.43 167.829 162.309 167.21 162.31ZM167.21 170.17C166.587 170.17 165.978 169.985 165.46 169.639C164.942 169.293 164.538 168.801 164.3 168.226C164.061 167.65 163.999 167.017 164.121 166.406C164.242 165.795 164.542 165.233 164.983 164.793C165.423 164.352 165.984 164.052 166.595 163.931C167.206 163.809 167.84 163.871 168.415 164.11C168.991 164.348 169.483 164.752 169.829 165.27C170.175 165.788 170.36 166.397 170.36 167.02C170.36 167.856 170.028 168.657 169.437 169.247C168.847 169.838 168.045 170.17 167.21 170.17Z" fill="white" stroke="#2E353A" stroke-width="0.916642" stroke-linecap="round" stroke-linejoin="round"/>
<path d="M167.21 172.28C166.279 172.282 165.369 172.56 164.596 173.079C163.823 173.597 163.221 174.334 162.866 175.195C162.511 176.055 162.419 177.002 162.602 177.915C162.785 178.828 163.234 179.666 163.893 180.324C164.552 180.982 165.391 181.429 166.305 181.61C167.218 181.791 168.165 181.697 169.025 181.341C169.885 180.984 170.62 180.38 171.137 179.606C171.654 178.831 171.93 177.921 171.93 176.99C171.93 176.371 171.808 175.757 171.571 175.185C171.333 174.613 170.985 174.094 170.547 173.656C170.109 173.219 169.588 172.872 169.016 172.636C168.443 172.4 167.829 172.279 167.21 172.28ZM167.21 180.13C166.589 180.128 165.983 179.942 165.468 179.596C164.953 179.25 164.552 178.759 164.316 178.185C164.08 177.611 164.019 176.98 164.142 176.371C164.264 175.763 164.564 175.204 165.003 174.766C165.443 174.328 166.002 174.03 166.611 173.91C167.22 173.789 167.851 173.852 168.424 174.09C168.997 174.328 169.487 174.73 169.832 175.247C170.176 175.763 170.36 176.369 170.36 176.99C170.357 177.824 170.024 178.622 169.434 179.211C168.843 179.8 168.044 180.13 167.21 180.13Z" fill="white" stroke="#2E353A" stroke-width="0.916642" stroke-linecap="round" stroke-linejoin="round"/>
<path d="M167.21 166.51C166.99 166.51 166.779 166.423 166.623 166.267C166.467 166.111 166.38 165.9 166.38 165.68V157.91C166.38 157.69 166.467 157.479 166.623 157.323C166.779 157.168 166.99 157.08 167.21 157.08C167.431 157.08 167.643 157.167 167.8 157.323C167.958 157.478 168.047 157.689 168.05 157.91V165.68C168.047 165.901 167.958 166.112 167.8 166.268C167.643 166.423 167.431 166.51 167.21 166.51Z" fill="white" stroke="#2E353A" stroke-width="0.916642" stroke-linecap="round" stroke-linejoin="round"/>
<path d="M167.21 177.2C166.99 177.2 166.779 177.113 166.623 176.957C166.467 176.801 166.38 176.59 166.38 176.37V168.6C166.38 168.38 166.467 168.169 166.623 168.013C166.779 167.857 166.99 167.77 167.21 167.77C167.431 167.77 167.643 167.857 167.8 168.012C167.958 168.168 168.047 168.379 168.05 168.6V176.37C168.047 176.591 167.958 176.802 167.8 176.958C167.643 177.113 167.431 177.2 167.21 177.2Z" fill="white" stroke="#2E353A" stroke-width="0.916642" stroke-linecap="round" stroke-linejoin="round"/>
<path d="M167.21 187.91C166.99 187.91 166.779 187.823 166.623 187.667C166.467 187.511 166.38 187.3 166.38 187.08V179.31C166.38 179.201 166.401 179.093 166.443 178.992C166.485 178.892 166.546 178.8 166.623 178.723C166.7 178.646 166.792 178.585 166.892 178.543C166.993 178.501 167.101 178.48 167.21 178.48C167.431 178.48 167.643 178.567 167.8 178.722C167.958 178.878 168.047 179.089 168.05 179.31V187.08C168.047 187.301 167.958 187.512 167.8 187.667C167.643 187.823 167.431 187.91 167.21 187.91Z" fill="white" stroke="#2E353A" stroke-width="0.916642" stroke-linecap="round" stroke-linejoin="round"/>
<path d="M262.63 151C261.699 151.002 260.789 151.28 260.016 151.799C259.243 152.317 258.641 153.054 258.286 153.914C257.931 154.775 257.839 155.722 258.022 156.635C258.205 157.548 258.654 158.386 259.313 159.044C259.972 159.702 260.811 160.149 261.725 160.33C262.638 160.511 263.585 160.417 264.445 160.061C265.305 159.704 266.04 159.1 266.557 158.326C267.074 157.551 267.35 156.641 267.35 155.71C267.35 155.091 267.228 154.477 266.99 153.905C266.753 153.333 266.405 152.813 265.967 152.376C265.528 151.939 265.008 151.592 264.435 151.356C263.863 151.12 263.249 150.999 262.63 151ZM262.63 158.85C262.009 158.848 261.403 158.662 260.888 158.316C260.373 157.97 259.972 157.479 259.736 156.905C259.5 156.331 259.439 155.7 259.561 155.091C259.684 154.483 259.984 153.924 260.423 153.486C260.863 153.048 261.422 152.75 262.031 152.63C262.64 152.509 263.271 152.572 263.844 152.81C264.417 153.048 264.907 153.45 265.251 153.967C265.596 154.483 265.78 155.089 265.78 155.71C265.783 156.125 265.703 156.537 265.546 156.922C265.389 157.306 265.157 157.656 264.864 157.95C264.572 158.245 264.224 158.479 263.84 158.638C263.457 158.798 263.045 158.88 262.63 158.88V158.85Z" fill="white" stroke="#2E353A" stroke-width="0.916642" stroke-linecap="round" stroke-linejoin="round"/>
<path d="M262.63 162.31C261.696 162.31 260.783 162.587 260.007 163.106C259.23 163.625 258.625 164.363 258.268 165.226C257.911 166.089 257.818 167.039 258.001 167.955C258.184 168.87 258.635 169.711 259.296 170.371C259.957 171.031 260.799 171.48 261.715 171.661C262.631 171.842 263.581 171.747 264.443 171.388C265.305 171.029 266.042 170.423 266.559 169.645C267.077 168.868 267.352 167.954 267.35 167.02C267.35 166.401 267.228 165.787 266.99 165.215C266.753 164.643 266.405 164.124 265.967 163.686C265.528 163.249 265.008 162.902 264.435 162.666C263.863 162.43 263.249 162.309 262.63 162.31ZM262.63 170.17C262.007 170.17 261.398 169.985 260.88 169.639C260.362 169.293 259.958 168.801 259.72 168.226C259.481 167.65 259.419 167.017 259.54 166.406C259.662 165.795 259.962 165.233 260.403 164.793C260.843 164.352 261.404 164.052 262.015 163.931C262.626 163.809 263.26 163.871 263.835 164.11C264.411 164.348 264.903 164.752 265.249 165.27C265.595 165.788 265.78 166.397 265.78 167.02C265.78 167.434 265.698 167.843 265.54 168.226C265.382 168.608 265.15 168.955 264.857 169.247C264.565 169.54 264.218 169.772 263.835 169.93C263.453 170.089 263.044 170.17 262.63 170.17Z" fill="white" stroke="#2E353A" stroke-width="0.916642" stroke-linecap="round" stroke-linejoin="round"/>
<path d="M262.63 172.28C261.699 172.282 260.789 172.56 260.016 173.079C259.243 173.597 258.641 174.334 258.286 175.195C257.931 176.055 257.839 177.002 258.022 177.915C258.205 178.828 258.654 179.666 259.313 180.324C259.972 180.982 260.811 181.429 261.725 181.61C262.638 181.791 263.585 181.697 264.445 181.341C265.305 180.984 266.04 180.38 266.557 179.606C267.074 178.831 267.35 177.921 267.35 176.99C267.35 176.371 267.228 175.757 266.99 175.185C266.753 174.613 266.405 174.094 265.967 173.656C265.528 173.219 265.008 172.872 264.435 172.636C263.863 172.4 263.249 172.279 262.63 172.28ZM262.63 180.13C262.009 180.128 261.403 179.942 260.888 179.596C260.373 179.25 259.972 178.759 259.736 178.185C259.5 177.611 259.439 176.98 259.561 176.371C259.684 175.763 259.984 175.204 260.423 174.766C260.863 174.328 261.422 174.03 262.031 173.91C262.64 173.789 263.271 173.852 263.844 174.09C264.417 174.328 264.907 174.73 265.251 175.247C265.596 175.763 265.78 176.369 265.78 176.99C265.777 177.824 265.444 178.622 264.854 179.211C264.263 179.8 263.464 180.13 262.63 180.13Z" fill="white" stroke="#2E353A" stroke-width="0.916642" stroke-linecap="round" stroke-linejoin="round"/>
<path d="M262.63 166.51C262.41 166.51 262.199 166.423 262.043 166.267C261.887 166.111 261.8 165.9 261.8 165.68V157.91C261.8 157.69 261.887 157.479 262.043 157.323C262.199 157.168 262.41 157.08 262.63 157.08C262.851 157.08 263.063 157.167 263.221 157.323C263.378 157.478 263.467 157.689 263.47 157.91V165.68C263.467 165.901 263.378 166.112 263.221 166.268C263.063 166.423 262.851 166.51 262.63 166.51Z" fill="white" stroke="#2E353A" stroke-width="0.916642" stroke-linecap="round" stroke-linejoin="round"/>
<path d="M262.63 177.2C262.41 177.2 262.199 177.113 262.043 176.957C261.887 176.801 261.8 176.59 261.8 176.37V168.6C261.8 168.38 261.887 168.169 262.043 168.013C262.199 167.857 262.41 167.77 262.63 167.77C262.851 167.77 263.063 167.857 263.221 168.012C263.378 168.168 263.467 168.379 263.47 168.6V176.37C263.467 176.591 263.378 176.802 263.221 176.958C263.063 177.113 262.851 177.2 262.63 177.2Z" fill="white" stroke="#2E353A" stroke-width="0.916642" stroke-linecap="round" stroke-linejoin="round"/>
<path d="M262.63 187.91C262.41 187.91 262.199 187.823 262.043 187.667C261.887 187.511 261.8 187.3 261.8 187.08V179.31C261.8 179.201 261.822 179.093 261.863 178.992C261.905 178.892 261.966 178.8 262.043 178.723C262.12 178.646 262.212 178.585 262.312 178.543C262.413 178.501 262.521 178.48 262.63 178.48C262.851 178.48 263.063 178.567 263.221 178.722C263.378 178.878 263.467 179.089 263.47 179.31V187.08C263.467 187.301 263.378 187.512 263.221 187.667C263.063 187.823 262.851 187.91 262.63 187.91Z" fill="white" stroke="#2E353A" stroke-width="0.916642" stroke-linecap="round" stroke-linejoin="round"/>
<path d="M286.99 153.49H103.75L97.99 137.57H299.64L286.99 153.49Z" fill="#2E353A" stroke="#2E353A" stroke-width="0.887535" stroke-linecap="round" stroke-linejoin="round"/>
<path d="M282.32 153.49H99.0801L93.3201 137.57H294.98L282.32 153.49Z" fill="white" stroke="#2E353A" stroke-width="0.887535" stroke-linecap="round" stroke-linejoin="round"/>
<path d="M133.09 406.37H118.1L122.63 93.46H125.29L133.09 104.53V406.37Z" fill="#2E353A" stroke="#2E353A" stroke-width="0.887535" stroke-linecap="round" stroke-linejoin="round"/>
<path d="M130.42 406.37H115.43V104.53L122.63 93.46L130.42 104.53V406.37Z" fill="white" stroke="#2E353A" stroke-width="0.887535" stroke-linecap="round" stroke-linejoin="round"/>
<path d="M186.775 197.641V205.282H196.451V209.12H186.775V219.635H181.954V193.82H198.236V197.641H186.775ZM226.552 206.728C226.552 208.62 226.237 210.375 225.606 211.994C224.987 213.601 224.107 214.993 222.964 216.172C221.822 217.35 220.447 218.272 218.84 218.939C217.233 219.593 215.448 219.921 213.484 219.921C211.533 219.921 209.753 219.593 208.147 218.939C206.54 218.272 205.159 217.35 204.005 216.172C202.862 214.993 201.975 213.601 201.345 211.994C200.714 210.375 200.399 208.62 200.399 206.728C200.399 204.835 200.714 203.086 201.345 201.479C201.975 199.86 202.862 198.462 204.005 197.284C205.159 196.105 206.54 195.189 208.147 194.534C209.753 193.868 211.533 193.535 213.484 193.535C214.794 193.535 216.025 193.689 217.18 193.999C218.334 194.296 219.394 194.725 220.358 195.284C221.322 195.832 222.185 196.504 222.946 197.301C223.72 198.087 224.374 198.968 224.91 199.944C225.446 200.92 225.85 201.979 226.124 203.121C226.41 204.264 226.552 205.466 226.552 206.728ZM221.643 206.728C221.643 205.311 221.453 204.044 221.072 202.925C220.691 201.794 220.149 200.836 219.447 200.051C218.745 199.265 217.888 198.664 216.876 198.248C215.877 197.831 214.746 197.623 213.484 197.623C212.223 197.623 211.086 197.831 210.075 198.248C209.075 198.664 208.218 199.265 207.504 200.051C206.802 200.836 206.26 201.794 205.879 202.925C205.498 204.044 205.308 205.311 205.308 206.728C205.308 208.144 205.498 209.417 205.879 210.548C206.26 211.667 206.802 212.619 207.504 213.404C208.218 214.178 209.075 214.773 210.075 215.19C211.086 215.606 212.223 215.815 213.484 215.815C214.746 215.815 215.877 215.606 216.876 215.19C217.888 214.773 218.745 214.178 219.447 213.404C220.149 212.619 220.691 211.667 221.072 210.548C221.453 209.417 221.643 208.144 221.643 206.728ZM238.571 206.103C239.476 206.103 240.261 205.99 240.928 205.764C241.606 205.537 242.16 205.228 242.588 204.835C243.029 204.431 243.356 203.955 243.57 203.407C243.784 202.86 243.891 202.259 243.891 201.604C243.891 200.295 243.457 199.289 242.588 198.587C241.731 197.885 240.416 197.534 238.643 197.534H235.572V206.103H238.571ZM250.925 219.635H246.587C245.766 219.635 245.171 219.314 244.802 218.671L239.375 210.405C239.172 210.096 238.946 209.876 238.696 209.745C238.458 209.614 238.101 209.548 237.625 209.548H235.572V219.635H230.77V193.82H238.643C240.392 193.82 241.892 194.005 243.142 194.374C244.403 194.731 245.433 195.237 246.23 195.891C247.039 196.546 247.635 197.331 248.015 198.248C248.396 199.152 248.587 200.152 248.587 201.247C248.587 202.116 248.456 202.937 248.194 203.711C247.944 204.484 247.575 205.186 247.087 205.817C246.611 206.448 246.016 207.001 245.302 207.477C244.6 207.954 243.796 208.328 242.892 208.602C243.201 208.781 243.487 208.995 243.749 209.245C244.01 209.483 244.249 209.769 244.463 210.102L250.925 219.635Z" fill="white"/>
<path d="M190.121 227.495C189.978 227.745 189.823 227.93 189.657 228.049C189.502 228.156 189.305 228.21 189.067 228.21C188.817 228.21 188.544 228.12 188.246 227.942C187.961 227.751 187.615 227.543 187.211 227.317C186.806 227.091 186.33 226.888 185.783 226.71C185.247 226.52 184.61 226.424 183.872 226.424C183.206 226.424 182.623 226.508 182.123 226.674C181.623 226.829 181.2 227.049 180.855 227.335C180.522 227.62 180.272 227.966 180.105 228.37C179.939 228.763 179.856 229.197 179.856 229.673C179.856 230.28 180.022 230.786 180.355 231.191C180.701 231.596 181.153 231.941 181.712 232.226C182.272 232.512 182.908 232.768 183.622 232.994C184.336 233.22 185.068 233.464 185.818 233.726C186.568 233.976 187.3 234.273 188.014 234.619C188.728 234.952 189.365 235.38 189.924 235.904C190.484 236.416 190.93 237.047 191.263 237.796C191.608 238.546 191.781 239.457 191.781 240.528C191.781 241.694 191.579 242.789 191.174 243.813C190.781 244.824 190.198 245.711 189.424 246.473C188.663 247.222 187.728 247.818 186.622 248.258C185.515 248.686 184.247 248.901 182.819 248.901C181.998 248.901 181.188 248.817 180.391 248.651C179.594 248.496 178.826 248.27 178.088 247.972C177.362 247.675 176.678 247.318 176.035 246.901C175.392 246.485 174.821 246.02 174.321 245.509L175.732 243.206C175.851 243.039 176.005 242.902 176.196 242.795C176.386 242.676 176.588 242.617 176.803 242.617C177.1 242.617 177.422 242.742 177.767 242.991C178.112 243.229 178.523 243.497 178.999 243.795C179.475 244.092 180.028 244.366 180.659 244.616C181.302 244.854 182.069 244.973 182.962 244.973C184.331 244.973 185.39 244.652 186.14 244.009C186.889 243.354 187.264 242.42 187.264 241.206C187.264 240.528 187.092 239.974 186.747 239.546C186.413 239.117 185.967 238.76 185.408 238.475C184.848 238.177 184.212 237.927 183.497 237.725C182.783 237.523 182.057 237.302 181.319 237.064C180.582 236.826 179.856 236.541 179.141 236.207C178.427 235.874 177.791 235.44 177.231 234.904C176.672 234.369 176.22 233.702 175.874 232.905C175.541 232.095 175.375 231.102 175.375 229.923C175.375 228.983 175.559 228.067 175.928 227.174C176.309 226.281 176.856 225.49 177.57 224.8C178.284 224.109 179.165 223.556 180.213 223.139C181.26 222.723 182.462 222.515 183.819 222.515C185.342 222.515 186.747 222.753 188.032 223.229C189.317 223.705 190.412 224.371 191.317 225.228L190.121 227.495ZM209.087 238.868L205.944 230.28C205.79 229.9 205.629 229.447 205.462 228.924C205.296 228.4 205.129 227.835 204.963 227.228C204.808 227.835 204.647 228.406 204.481 228.942C204.314 229.465 204.153 229.923 203.999 230.316L200.874 238.868H209.087ZM217.566 248.615H213.853C213.437 248.615 213.097 248.514 212.836 248.311C212.574 248.097 212.377 247.835 212.246 247.526L210.318 242.259H199.625L197.697 247.526C197.601 247.8 197.417 248.05 197.143 248.276C196.869 248.502 196.53 248.615 196.126 248.615H192.377L202.535 222.8H207.426L217.566 248.615ZM235.36 244.652V248.615H220.238V222.8H225.041V244.652H235.36ZM243.609 226.621V233.78H252.642V237.475H243.609V244.777H255.07V248.615H238.788V222.8H255.07V226.621H243.609Z" fill="white"/>
<path d="M118.1 406.37V387.12" stroke="#2E353A" stroke-width="0.887535" stroke-linecap="round" stroke-linejoin="round"/>
<path d="M120.72 406.37V336.06" stroke="#2E353A" stroke-width="0.887535" stroke-linecap="round" stroke-linejoin="round"/>
<path d="M118.1 384.2V377.2" stroke="#2E353A" stroke-width="0.887535" stroke-linecap="round" stroke-linejoin="round"/>
<path d="M125.59 282.44V275.44" stroke="#2E353A" stroke-width="0.887535" stroke-linecap="round" stroke-linejoin="round"/>
<path d="M118.1 107.52V100.52" stroke="#2E353A" stroke-width="0.887535" stroke-linecap="round" stroke-linejoin="round"/>
<path d="M118.1 116.74V109.74" stroke="#2E353A" stroke-width="0.887535" stroke-linecap="round" stroke-linejoin="round"/>
<path d="M125.59 326.82V290.3" stroke="#2E353A" stroke-width="0.887535" stroke-linecap="round" stroke-linejoin="round"/>
<path d="M94.79 140.89H100.04" stroke="#2E353A" stroke-width="0.887535" stroke-linecap="round" stroke-linejoin="round"/>
<path d="M97.1199 143.52H109.67" stroke="#2E353A" stroke-width="0.887535" stroke-linecap="round" stroke-linejoin="round"/>
<path d="M143.77 143.52H156.31" stroke="#2E353A" stroke-width="0.887535" stroke-linecap="round" stroke-linejoin="round"/>
<path d="M150.04 146.44H154.45" stroke="#2E353A" stroke-width="0.887535" stroke-linecap="round" stroke-linejoin="round"/>
<path d="M172.31 146.44H198.49" stroke="#2E353A" stroke-width="0.887535" stroke-linecap="round" stroke-linejoin="round"/>
<path d="M288.21 146.44H283.83" stroke="#2E353A" stroke-width="0.887535" stroke-linecap="round" stroke-linejoin="round"/>
<path d="M286.16 148.48H271.29" stroke="#2E353A" stroke-width="0.887535" stroke-linecap="round" stroke-linejoin="round"/>
<path d="M85 411H94.8099C94.8099 411 77 395.12 85 396.74C93 398.36 100 404 100 404C100 404 90.54 395.1 97.08 396.72C103.62 398.34 103.35 401.02 103.35 401.02C103.35 401.02 103.86 381.79 109.63 387.1C112.98 390.029 115.048 394.154 115.39 398.59C115.39 398.59 127.72 383.34 130.39 384.18C133.06 385.02 133.06 394.35 133.06 394.35C133.06 394.35 153.77 377.47 150.01 387.1C146.25 396.73 143.74 400.35 143.74 400.35C143.74 400.35 153.46 391.76 152.22 396.72C151.69 399.114 150.951 401.456 150.01 403.72C150.01 403.72 164.63 408.3 162.47 408.29C160.31 408.28 156.28 411.06 156.28 411.06C156.28 411.06 180.97 407.06 176.28 411.06C171.59 415.06 133.04 414.39 133.04 414.39C133.04 414.39 151.87 419 143.77 419C135.67 419 122.93 415.66 122.93 415.66C122.93 415.66 103.93 419.66 97.12 419C90.31 418.34 109.67 415.66 109.67 415.66C109.67 415.66 72.83 415.7 85 411Z" fill="#2E353A" stroke="#2E353A" stroke-width="0.916642" stroke-linecap="round" stroke-linejoin="round"/>
<path d="M16.6207 464.88C16.4779 465.13 16.3232 465.315 16.1565 465.434C16.0018 465.541 15.8054 465.595 15.5674 465.595C15.3175 465.595 15.0437 465.505 14.7462 465.327C14.4605 465.136 14.1154 464.928 13.7107 464.702C13.3061 464.476 12.83 464.273 12.2825 464.095C11.747 463.905 11.1102 463.809 10.3723 463.809C9.70583 463.809 9.12264 463.893 8.62277 464.059C8.1229 464.214 7.70039 464.434 7.35524 464.72C7.022 465.005 6.77206 465.351 6.60544 465.755C6.43881 466.148 6.3555 466.582 6.3555 467.058C6.3555 467.665 6.52212 468.171 6.85537 468.576C7.20052 468.981 7.65278 469.326 8.21216 469.611C8.77154 469.897 9.40828 470.153 10.1224 470.379C10.8365 470.605 11.5684 470.849 12.3182 471.111C13.0681 471.361 13.8 471.658 14.5141 472.004C15.2282 472.337 15.8649 472.765 16.4243 473.289C16.9837 473.801 17.43 474.432 17.7633 475.181C18.1084 475.931 18.281 476.842 18.281 477.913C18.281 479.079 18.0787 480.174 17.674 481.198C17.2812 482.209 16.6981 483.096 15.9245 483.858C15.1627 484.608 14.2285 485.203 13.1216 485.643C12.0148 486.071 10.7472 486.286 9.31902 486.286C8.4978 486.286 7.68849 486.202 6.89108 486.036C6.09366 485.881 5.326 485.655 4.5881 485.357C3.8621 485.06 3.17775 484.703 2.53506 484.286C1.89237 483.87 1.32109 483.405 0.821216 482.894L2.23157 480.591C2.35058 480.424 2.50531 480.287 2.69573 480.18C2.88616 480.061 3.08849 480.002 3.30272 480.002C3.60026 480.002 3.92161 480.127 4.26675 480.376C4.6119 480.614 5.02251 480.882 5.49858 481.18C5.97465 481.477 6.52808 481.751 7.15886 482.001C7.80156 482.239 8.56921 482.358 9.46184 482.358C10.8305 482.358 11.8898 482.037 12.6396 481.394C13.3894 480.739 13.7643 479.805 13.7643 478.591C13.7643 477.913 13.5917 477.359 13.2466 476.931C12.9133 476.502 12.467 476.145 11.9076 475.86C11.3483 475.562 10.7115 475.312 9.99742 475.11C9.28332 474.908 8.55731 474.687 7.81941 474.449C7.0815 474.211 6.3555 473.926 5.6414 473.592C4.9273 473.259 4.29056 472.825 3.73118 472.289C3.1718 471.754 2.71954 471.087 2.37439 470.29C2.04114 469.48 1.87452 468.487 1.87452 467.308C1.87452 466.368 2.05899 465.452 2.42794 464.559C2.8088 463.666 3.35628 462.875 4.07038 462.185C4.78448 461.494 5.6652 460.941 6.71255 460.524C7.7599 460.108 8.96197 459.9 10.3188 459.9C11.8422 459.9 13.2466 460.138 14.532 460.614C15.8173 461.09 16.9123 461.756 17.8168 462.613L16.6207 464.88ZM33.5047 474.735C33.5047 474.164 33.4214 473.628 33.2548 473.128C33.1001 472.617 32.862 472.17 32.5407 471.789C32.2194 471.409 31.8087 471.111 31.3089 470.897C30.8209 470.671 30.2496 470.558 29.595 470.558C28.3216 470.558 27.3159 470.921 26.578 471.647C25.852 472.373 25.3878 473.402 25.1855 474.735H33.5047ZM25.0962 477.395C25.1676 478.335 25.3342 479.151 25.5961 479.841C25.8579 480.519 26.2031 481.085 26.6315 481.537C27.06 481.977 27.5658 482.31 28.149 482.537C28.7441 482.751 29.3987 482.858 30.1128 482.858C30.8269 482.858 31.4398 482.775 31.9516 482.608C32.4752 482.441 32.9275 482.257 33.3084 482.055C33.7011 481.852 34.0403 481.668 34.326 481.501C34.6235 481.335 34.9091 481.251 35.1829 481.251C35.5518 481.251 35.8256 481.388 36.0041 481.662L37.2716 483.269C36.7837 483.84 36.2362 484.322 35.6292 484.715C35.0222 485.095 34.3855 485.405 33.719 485.643C33.0644 485.869 32.3919 486.03 31.7016 486.125C31.0232 486.22 30.3627 486.268 29.72 486.268C28.4465 486.268 27.2623 486.06 26.1673 485.643C25.0724 485.214 24.1203 484.59 23.3109 483.768C22.5016 482.935 21.8649 481.912 21.4007 480.698C20.9366 479.472 20.7045 478.056 20.7045 476.449C20.7045 475.199 20.9068 474.027 21.3115 472.932C21.7161 471.825 22.2933 470.867 23.0432 470.058C23.8049 469.236 24.7272 468.588 25.8103 468.112C26.9053 467.636 28.1371 467.398 29.5058 467.398C30.6602 467.398 31.7254 467.582 32.7014 467.951C33.6773 468.32 34.5164 468.862 35.2186 469.576C35.9208 470.278 36.4683 471.147 36.861 472.182C37.2657 473.206 37.468 474.378 37.468 475.699C37.468 476.366 37.3966 476.818 37.2538 477.056C37.1109 477.282 36.8372 477.395 36.4326 477.395H25.0962ZM50.4532 478.181C49.1797 478.24 48.1086 478.353 47.2397 478.52C46.3709 478.675 45.6747 478.877 45.151 479.127C44.6273 479.377 44.2524 479.668 44.0263 480.002C43.8002 480.335 43.6871 480.698 43.6871 481.091C43.6871 481.864 43.9132 482.418 44.3655 482.751C44.8297 483.084 45.4307 483.251 46.1686 483.251C47.0731 483.251 47.8527 483.09 48.5073 482.769C49.1738 482.435 49.8224 481.936 50.4532 481.269V478.181ZM40.3487 470.236C42.4553 468.308 44.9903 467.344 47.9538 467.344C49.025 467.344 49.9831 467.523 50.8281 467.88C51.6731 468.225 52.3872 468.713 52.9704 469.344C53.5536 469.962 53.994 470.706 54.2915 471.575C54.6009 472.444 54.7557 473.396 54.7557 474.432V486H52.7562C52.3396 486 52.0183 485.94 51.7921 485.821C51.566 485.691 51.3875 485.435 51.2566 485.054L50.8638 483.733C50.3996 484.149 49.9474 484.518 49.507 484.84C49.0667 485.149 48.6084 485.411 48.1324 485.625C47.6563 485.839 47.1445 486 46.5971 486.107C46.0615 486.226 45.4664 486.286 44.8118 486.286C44.0382 486.286 43.3241 486.184 42.6695 485.982C42.0149 485.768 41.4496 485.453 40.9735 485.036C40.4974 484.619 40.1285 484.102 39.8667 483.483C39.6048 482.864 39.4739 482.144 39.4739 481.323C39.4739 480.858 39.5513 480.4 39.706 479.948C39.8607 479.484 40.1106 479.043 40.4558 478.627C40.8128 478.21 41.271 477.818 41.8304 477.449C42.3898 477.08 43.0742 476.758 43.8835 476.485C44.7047 476.211 45.6568 475.991 46.7399 475.824C47.8229 475.646 49.0607 475.538 50.4532 475.503V474.432C50.4532 473.206 50.1914 472.301 49.6677 471.718C49.144 471.123 48.3883 470.825 47.4004 470.825C46.6863 470.825 46.0912 470.909 45.6152 471.075C45.151 471.242 44.7404 471.432 44.3833 471.647C44.0263 471.849 43.699 472.033 43.4015 472.2C43.1158 472.367 42.7945 472.45 42.4374 472.45C42.128 472.45 41.8661 472.373 41.6519 472.218C41.4377 472.051 41.2651 471.861 41.1342 471.647L40.3487 470.236ZM63.0682 470.861C63.6395 469.766 64.3179 468.909 65.1034 468.29C65.8889 467.66 66.8173 467.344 67.8884 467.344C68.7334 467.344 69.4118 467.529 69.9236 467.898L69.638 471.2C69.5785 471.414 69.4892 471.569 69.3702 471.664C69.2631 471.748 69.1143 471.789 68.9239 471.789C68.7454 471.789 68.4776 471.76 68.1205 471.7C67.7754 471.641 67.4362 471.611 67.1029 471.611C66.6149 471.611 66.1805 471.682 65.7997 471.825C65.4188 471.968 65.0737 472.176 64.7642 472.45C64.4667 472.712 64.1989 473.033 63.9609 473.414C63.7347 473.795 63.5205 474.229 63.3182 474.717V486H58.9086V467.683H61.4972C61.9495 467.683 62.2649 467.767 62.4434 467.933C62.6219 468.088 62.741 468.374 62.8005 468.79L63.0682 470.861ZM84.8269 471.557C84.6959 471.724 84.565 471.855 84.4341 471.95C84.3151 472.045 84.1366 472.093 83.8985 472.093C83.6724 472.093 83.4522 472.027 83.238 471.897C83.0238 471.754 82.7679 471.599 82.4703 471.432C82.1728 471.254 81.8157 471.099 81.3992 470.968C80.9945 470.825 80.4887 470.754 79.8817 470.754C79.1081 470.754 78.4297 470.897 77.8465 471.182C77.2633 471.456 76.7754 471.855 76.3826 472.379C76.0018 472.902 75.7161 473.539 75.5257 474.289C75.3353 475.027 75.24 475.866 75.24 476.806C75.24 477.782 75.3412 478.651 75.5435 479.412C75.7578 480.174 76.0613 480.817 76.454 481.34C76.8468 481.852 77.3228 482.245 77.8822 482.519C78.4416 482.781 79.0724 482.912 79.7746 482.912C80.4768 482.912 81.0421 482.828 81.4706 482.662C81.9109 482.483 82.2799 482.293 82.5774 482.09C82.875 481.876 83.1309 481.686 83.3451 481.519C83.5712 481.34 83.8212 481.251 84.0949 481.251C84.452 481.251 84.7197 481.388 84.8983 481.662L86.1658 483.269C85.6778 483.84 85.1482 484.322 84.5769 484.715C84.0056 485.095 83.4106 485.405 82.7917 485.643C82.1847 485.869 81.5539 486.03 80.8993 486.125C80.2566 486.22 79.6139 486.268 78.9712 486.268C77.8406 486.268 76.7754 486.06 75.7756 485.643C74.7759 485.214 73.9011 484.596 73.1513 483.786C72.4015 482.977 71.8064 481.989 71.366 480.823C70.9376 479.644 70.7234 478.306 70.7234 476.806C70.7234 475.461 70.9138 474.217 71.2946 473.075C71.6874 471.92 72.2587 470.927 73.0085 470.093C73.7583 469.248 74.6866 468.588 75.7935 468.112C76.9003 467.636 78.1738 467.398 79.6139 467.398C80.9826 467.398 82.1787 467.618 83.2023 468.058C84.2377 468.499 85.1661 469.129 85.9873 469.951L84.8269 471.557ZM93.3397 469.647C94.0538 468.981 94.8393 468.439 95.6963 468.023C96.5532 467.606 97.5589 467.398 98.7133 467.398C99.7131 467.398 100.6 467.57 101.373 467.915C102.147 468.249 102.79 468.725 103.301 469.344C103.825 469.951 104.218 470.683 104.48 471.539C104.753 472.384 104.89 473.319 104.89 474.342V486H100.481V474.342C100.481 473.224 100.225 472.361 99.7131 471.754C99.2013 471.135 98.4217 470.825 97.3744 470.825C96.6127 470.825 95.8986 470.998 95.2321 471.343C94.5656 471.688 93.9348 472.158 93.3397 472.753V486H88.9301V459.471H93.3397V469.647ZM127.442 478.181C126.169 478.24 125.098 478.353 124.229 478.52C123.36 478.675 122.664 478.877 122.14 479.127C121.616 479.377 121.241 479.668 121.015 480.002C120.789 480.335 120.676 480.698 120.676 481.091C120.676 481.864 120.902 482.418 121.355 482.751C121.819 483.084 122.42 483.251 123.158 483.251C124.062 483.251 124.842 483.09 125.496 482.769C126.163 482.435 126.811 481.936 127.442 481.269V478.181ZM117.338 470.236C119.444 468.308 121.979 467.344 124.943 467.344C126.014 467.344 126.972 467.523 127.817 467.88C128.662 468.225 129.376 468.713 129.959 469.344C130.543 469.962 130.983 470.706 131.281 471.575C131.59 472.444 131.745 473.396 131.745 474.432V486H129.745C129.329 486 129.007 485.94 128.781 485.821C128.555 485.691 128.377 485.435 128.246 485.054L127.853 483.733C127.389 484.149 126.936 484.518 126.496 484.84C126.056 485.149 125.597 485.411 125.121 485.625C124.645 485.839 124.134 486 123.586 486.107C123.051 486.226 122.455 486.286 121.801 486.286C121.027 486.286 120.313 486.184 119.659 485.982C119.004 485.768 118.439 485.453 117.963 485.036C117.486 484.619 117.118 484.102 116.856 483.483C116.594 482.864 116.463 482.144 116.463 481.323C116.463 480.858 116.54 480.4 116.695 479.948C116.85 479.484 117.1 479.043 117.445 478.627C117.802 478.21 118.26 477.818 118.819 477.449C119.379 477.08 120.063 476.758 120.873 476.485C121.694 476.211 122.646 475.991 123.729 475.824C124.812 475.646 126.05 475.538 127.442 475.503V474.432C127.442 473.206 127.18 472.301 126.657 471.718C126.133 471.123 125.377 470.825 124.389 470.825C123.675 470.825 123.08 470.909 122.604 471.075C122.14 471.242 121.729 471.432 121.372 471.647C121.015 471.849 120.688 472.033 120.39 472.2C120.105 472.367 119.784 472.45 119.426 472.45C119.117 472.45 118.855 472.373 118.641 472.218C118.427 472.051 118.254 471.861 118.123 471.647L117.338 470.236ZM140.307 481.251C140.807 481.858 141.349 482.287 141.932 482.537C142.527 482.787 143.17 482.912 143.86 482.912C144.526 482.912 145.127 482.787 145.663 482.537C146.199 482.287 146.651 481.906 147.02 481.394C147.401 480.882 147.692 480.24 147.895 479.466C148.097 478.68 148.198 477.758 148.198 476.699C148.198 475.628 148.109 474.723 147.93 473.985C147.764 473.235 147.52 472.628 147.198 472.164C146.877 471.7 146.484 471.361 146.02 471.147C145.568 470.932 145.05 470.825 144.467 470.825C143.55 470.825 142.771 471.022 142.128 471.414C141.485 471.795 140.878 472.337 140.307 473.039V481.251ZM140.075 470.183C140.825 469.338 141.676 468.653 142.628 468.13C143.58 467.606 144.699 467.344 145.984 467.344C146.984 467.344 147.895 467.552 148.716 467.969C149.549 468.386 150.263 468.992 150.858 469.79C151.465 470.575 151.929 471.551 152.251 472.718C152.584 473.872 152.75 475.199 152.75 476.699C152.75 478.068 152.566 479.335 152.197 480.501C151.828 481.668 151.298 482.679 150.608 483.536C149.93 484.393 149.103 485.066 148.127 485.554C147.163 486.03 146.08 486.268 144.877 486.268C143.854 486.268 142.979 486.113 142.253 485.804C141.527 485.482 140.878 485.042 140.307 484.483V491.981H135.898V467.683H138.593C139.165 467.683 139.54 467.951 139.718 468.487L140.075 470.183ZM165.867 478.181C164.594 478.24 163.522 478.353 162.654 478.52C161.785 478.675 161.088 478.877 160.565 479.127C160.041 479.377 159.666 479.668 159.44 480.002C159.214 480.335 159.101 480.698 159.101 481.091C159.101 481.864 159.327 482.418 159.779 482.751C160.243 483.084 160.845 483.251 161.582 483.251C162.487 483.251 163.267 483.09 163.921 482.769C164.588 482.435 165.236 481.936 165.867 481.269V478.181ZM155.762 470.236C157.869 468.308 160.404 467.344 163.368 467.344C164.439 467.344 165.397 467.523 166.242 467.88C167.087 468.225 167.801 468.713 168.384 469.344C168.967 469.962 169.408 470.706 169.705 471.575C170.015 472.444 170.169 473.396 170.169 474.432V486H168.17C167.753 486 167.432 485.94 167.206 485.821C166.98 485.691 166.801 485.435 166.67 485.054L166.278 483.733C165.813 484.149 165.361 484.518 164.921 484.84C164.48 485.149 164.022 485.411 163.546 485.625C163.07 485.839 162.558 486 162.011 486.107C161.475 486.226 160.88 486.286 160.226 486.286C159.452 486.286 158.738 486.184 158.083 485.982C157.429 485.768 156.863 485.453 156.387 485.036C155.911 484.619 155.542 484.102 155.28 483.483C155.019 482.864 154.888 482.144 154.888 481.323C154.888 480.858 154.965 480.4 155.12 479.948C155.275 479.484 155.524 479.043 155.87 478.627C156.227 478.21 156.685 477.818 157.244 477.449C157.804 477.08 158.488 476.758 159.297 476.485C160.119 476.211 161.071 475.991 162.154 475.824C163.237 475.646 164.475 475.538 165.867 475.503V474.432C165.867 473.206 165.605 472.301 165.082 471.718C164.558 471.123 163.802 470.825 162.814 470.825C162.1 470.825 161.505 470.909 161.029 471.075C160.565 471.242 160.154 471.432 159.797 471.647C159.44 471.849 159.113 472.033 158.815 472.2C158.53 472.367 158.208 472.45 157.851 472.45C157.542 472.45 157.28 472.373 157.066 472.218C156.851 472.051 156.679 471.861 156.548 471.647L155.762 470.236ZM178.482 470.861C179.053 469.766 179.732 468.909 180.517 468.29C181.303 467.66 182.231 467.344 183.302 467.344C184.147 467.344 184.826 467.529 185.337 467.898L185.052 471.2C184.992 471.414 184.903 471.569 184.784 471.664C184.677 471.748 184.528 471.789 184.338 471.789C184.159 471.789 183.891 471.76 183.534 471.7C183.189 471.641 182.85 471.611 182.517 471.611C182.029 471.611 181.594 471.682 181.213 471.825C180.833 471.968 180.487 472.176 180.178 472.45C179.881 472.712 179.613 473.033 179.375 473.414C179.149 473.795 178.934 474.229 178.732 474.717V486H174.322V467.683H176.911C177.363 467.683 177.679 467.767 177.857 467.933C178.036 468.088 178.155 468.374 178.214 468.79L178.482 470.861ZM193.748 486.286C192.153 486.286 190.927 485.839 190.07 484.947C189.225 484.042 188.802 482.798 188.802 481.216V470.986H186.928C186.69 470.986 186.488 470.909 186.321 470.754C186.154 470.599 186.071 470.367 186.071 470.058V468.308L189.017 467.826L189.945 462.827C190.005 462.589 190.118 462.405 190.284 462.274C190.451 462.143 190.665 462.078 190.927 462.078H193.212V467.844H198.104V470.986H193.212V480.912C193.212 481.483 193.349 481.93 193.623 482.251C193.908 482.572 194.295 482.733 194.783 482.733C195.057 482.733 195.283 482.703 195.461 482.644C195.652 482.572 195.813 482.501 195.944 482.429C196.086 482.358 196.211 482.293 196.318 482.233C196.426 482.162 196.533 482.126 196.64 482.126C196.771 482.126 196.878 482.162 196.961 482.233C197.044 482.293 197.134 482.388 197.229 482.519L198.55 484.661C197.907 485.197 197.169 485.601 196.336 485.875C195.503 486.149 194.64 486.286 193.748 486.286ZM200.927 486V467.683H203.623C204.194 467.683 204.569 467.951 204.747 468.487L205.033 469.843C205.354 469.486 205.688 469.159 206.033 468.862C206.39 468.564 206.765 468.308 207.157 468.094C207.562 467.88 207.991 467.713 208.443 467.594C208.907 467.463 209.413 467.398 209.96 467.398C211.115 467.398 212.061 467.713 212.799 468.344C213.549 468.963 214.108 469.79 214.477 470.825C214.763 470.218 215.12 469.701 215.548 469.272C215.977 468.832 216.447 468.475 216.958 468.201C217.47 467.927 218.012 467.725 218.583 467.594C219.166 467.463 219.749 467.398 220.333 467.398C221.344 467.398 222.243 467.552 223.028 467.862C223.814 468.171 224.474 468.624 225.01 469.219C225.546 469.814 225.95 470.54 226.224 471.397C226.51 472.254 226.652 473.235 226.652 474.342V486H222.243V474.342C222.243 473.176 221.987 472.301 221.475 471.718C220.963 471.123 220.214 470.825 219.226 470.825C218.773 470.825 218.351 470.903 217.958 471.057C217.577 471.212 217.238 471.438 216.941 471.736C216.655 472.021 216.429 472.384 216.262 472.825C216.096 473.265 216.012 473.771 216.012 474.342V486H211.585V474.342C211.585 473.116 211.335 472.224 210.835 471.664C210.347 471.105 209.627 470.825 208.675 470.825C208.032 470.825 207.431 470.986 206.872 471.307C206.324 471.617 205.813 472.045 205.336 472.593V486H200.927ZM242.644 474.735C242.644 474.164 242.561 473.628 242.394 473.128C242.24 472.617 242.002 472.17 241.68 471.789C241.359 471.409 240.948 471.111 240.448 470.897C239.961 470.671 239.389 470.558 238.735 470.558C237.461 470.558 236.455 470.921 235.718 471.647C234.992 472.373 234.527 473.402 234.325 474.735H242.644ZM234.236 477.395C234.307 478.335 234.474 479.151 234.736 479.841C234.997 480.519 235.343 481.085 235.771 481.537C236.2 481.977 236.705 482.31 237.289 482.537C237.884 482.751 238.538 482.858 239.252 482.858C239.966 482.858 240.579 482.775 241.091 482.608C241.615 482.441 242.067 482.257 242.448 482.055C242.841 481.852 243.18 481.668 243.466 481.501C243.763 481.335 244.049 481.251 244.322 481.251C244.691 481.251 244.965 481.388 245.144 481.662L246.411 483.269C245.923 483.84 245.376 484.322 244.769 484.715C244.162 485.095 243.525 485.405 242.859 485.643C242.204 485.869 241.532 486.03 240.841 486.125C240.163 486.22 239.502 486.268 238.86 486.268C237.586 486.268 236.402 486.06 235.307 485.643C234.212 485.214 233.26 484.59 232.451 483.768C231.641 482.935 231.004 481.912 230.54 480.698C230.076 479.472 229.844 478.056 229.844 476.449C229.844 475.199 230.046 474.027 230.451 472.932C230.856 471.825 231.433 470.867 232.183 470.058C232.944 469.236 233.867 468.588 234.95 468.112C236.045 467.636 237.277 467.398 238.645 467.398C239.8 467.398 240.865 467.582 241.841 467.951C242.817 468.32 243.656 468.862 244.358 469.576C245.06 470.278 245.608 471.147 246.001 472.182C246.405 473.206 246.608 474.378 246.608 475.699C246.608 476.366 246.536 476.818 246.393 477.056C246.251 477.282 245.977 477.395 245.572 477.395H234.236ZM254.041 469.933C254.41 469.564 254.796 469.225 255.201 468.915C255.618 468.594 256.052 468.326 256.504 468.112C256.968 467.886 257.462 467.713 257.986 467.594C258.51 467.463 259.081 467.398 259.7 467.398C260.7 467.398 261.586 467.57 262.36 467.915C263.134 468.249 263.776 468.725 264.288 469.344C264.812 469.951 265.204 470.683 265.466 471.539C265.74 472.384 265.877 473.319 265.877 474.342V486H261.467V474.342C261.467 473.224 261.211 472.361 260.7 471.754C260.188 471.135 259.408 470.825 258.361 470.825C257.599 470.825 256.885 470.998 256.219 471.343C255.552 471.688 254.921 472.158 254.326 472.753V486H249.917V467.683H252.612C253.184 467.683 253.559 467.951 253.737 468.487L254.041 469.933ZM275.932 486.286C274.337 486.286 273.111 485.839 272.254 484.947C271.409 484.042 270.987 482.798 270.987 481.216V470.986H269.112C268.874 470.986 268.672 470.909 268.505 470.754C268.339 470.599 268.255 470.367 268.255 470.058V468.308L271.201 467.826L272.129 462.827C272.189 462.589 272.302 462.405 272.469 462.274C272.635 462.143 272.85 462.078 273.111 462.078H275.396V467.844H280.288V470.986H275.396V480.912C275.396 481.483 275.533 481.93 275.807 482.251C276.093 482.572 276.48 482.733 276.967 482.733C277.241 482.733 277.467 482.703 277.646 482.644C277.836 482.572 277.997 482.501 278.128 482.429C278.271 482.358 278.396 482.293 278.503 482.233C278.61 482.162 278.717 482.126 278.824 482.126C278.955 482.126 279.062 482.162 279.145 482.233C279.229 482.293 279.318 482.388 279.413 482.519L280.734 484.661C280.092 485.197 279.354 485.601 278.521 485.875C277.688 486.149 276.825 486.286 275.932 486.286ZM294.287 471.254C294.168 471.444 294.043 471.581 293.912 471.664C293.781 471.736 293.615 471.772 293.412 471.772C293.198 471.772 292.966 471.712 292.716 471.593C292.478 471.474 292.198 471.343 291.877 471.2C291.556 471.046 291.187 470.909 290.77 470.79C290.365 470.671 289.883 470.611 289.324 470.611C288.455 470.611 287.771 470.796 287.271 471.165C286.783 471.533 286.539 472.016 286.539 472.611C286.539 473.003 286.664 473.337 286.914 473.61C287.176 473.872 287.515 474.104 287.931 474.307C288.36 474.509 288.842 474.693 289.378 474.86C289.913 475.015 290.455 475.187 291.002 475.378C291.561 475.568 292.109 475.788 292.645 476.038C293.18 476.276 293.656 476.586 294.073 476.967C294.501 477.336 294.84 477.782 295.09 478.306C295.352 478.829 295.483 479.46 295.483 480.198C295.483 481.079 295.322 481.894 295.001 482.644C294.692 483.382 294.227 484.024 293.609 484.572C292.99 485.107 292.222 485.53 291.306 485.839C290.401 486.137 289.354 486.286 288.164 486.286C287.533 486.286 286.914 486.226 286.307 486.107C285.712 486 285.135 485.845 284.575 485.643C284.028 485.441 283.516 485.203 283.04 484.929C282.576 484.655 282.165 484.358 281.808 484.036L282.826 482.358C282.957 482.156 283.111 482.001 283.29 481.894C283.468 481.787 283.694 481.733 283.968 481.733C284.242 481.733 284.498 481.811 284.736 481.965C284.986 482.12 285.271 482.287 285.593 482.465C285.914 482.644 286.289 482.81 286.717 482.965C287.158 483.12 287.711 483.197 288.378 483.197C288.901 483.197 289.348 483.138 289.717 483.019C290.098 482.888 290.407 482.721 290.645 482.519C290.895 482.316 291.073 482.084 291.181 481.823C291.3 481.549 291.359 481.269 291.359 480.983C291.359 480.555 291.228 480.204 290.966 479.93C290.716 479.656 290.377 479.418 289.949 479.216C289.532 479.014 289.05 478.835 288.503 478.68C287.967 478.514 287.414 478.335 286.842 478.145C286.283 477.954 285.73 477.734 285.182 477.484C284.647 477.223 284.165 476.895 283.736 476.502C283.32 476.11 282.98 475.628 282.719 475.056C282.469 474.485 282.344 473.795 282.344 472.986C282.344 472.236 282.492 471.522 282.79 470.843C283.087 470.165 283.522 469.576 284.093 469.076C284.676 468.564 285.396 468.159 286.253 467.862C287.122 467.552 288.122 467.398 289.253 467.398C290.514 467.398 291.663 467.606 292.698 468.023C293.734 468.439 294.596 468.987 295.287 469.665L294.287 471.254ZM298.731 490.374C298.516 490.195 298.409 489.975 298.409 489.713C298.409 489.618 298.439 489.511 298.498 489.392C298.57 489.273 298.653 489.166 298.748 489.071C298.879 488.928 299.04 488.749 299.23 488.535C299.421 488.333 299.611 488.095 299.802 487.821C299.992 487.559 300.165 487.268 300.319 486.946C300.486 486.637 300.611 486.303 300.694 485.946C300.313 485.946 299.968 485.881 299.659 485.75C299.349 485.607 299.082 485.417 298.856 485.179C298.641 484.941 298.469 484.661 298.338 484.34C298.219 484.018 298.159 483.667 298.159 483.286C298.159 482.953 298.219 482.644 298.338 482.358C298.469 482.061 298.647 481.805 298.873 481.59C299.1 481.364 299.373 481.192 299.695 481.073C300.016 480.942 300.367 480.876 300.748 480.876C301.2 480.876 301.593 480.96 301.926 481.126C302.271 481.281 302.551 481.501 302.765 481.787C302.991 482.061 303.158 482.382 303.265 482.751C303.384 483.108 303.444 483.489 303.444 483.893C303.444 484.465 303.354 485.066 303.176 485.697C303.009 486.327 302.759 486.958 302.426 487.589C302.093 488.22 301.676 488.833 301.176 489.428C300.688 490.023 300.129 490.57 299.498 491.07L298.731 490.374ZM320.262 469.647C320.976 468.981 321.762 468.439 322.619 468.023C323.476 467.606 324.481 467.398 325.636 467.398C326.635 467.398 327.522 467.57 328.296 467.915C329.069 468.249 329.712 468.725 330.224 469.344C330.748 469.951 331.14 470.683 331.402 471.539C331.676 472.384 331.813 473.319 331.813 474.342V486H327.403V474.342C327.403 473.224 327.147 472.361 326.635 471.754C326.124 471.135 325.344 470.825 324.297 470.825C323.535 470.825 322.821 470.998 322.154 471.343C321.488 471.688 320.857 472.158 320.262 472.753V486H315.853V459.471H320.262V469.647ZM344.111 467.398C345.468 467.398 346.7 467.618 347.807 468.058C348.926 468.499 349.878 469.123 350.663 469.933C351.461 470.742 352.074 471.73 352.502 472.896C352.931 474.063 353.145 475.366 353.145 476.806C353.145 478.258 352.931 479.567 352.502 480.734C352.074 481.9 351.461 482.894 350.663 483.715C349.878 484.536 348.926 485.167 347.807 485.607C346.7 486.048 345.468 486.268 344.111 486.268C342.743 486.268 341.499 486.048 340.38 485.607C339.261 485.167 338.303 484.536 337.506 483.715C336.72 482.894 336.108 481.9 335.667 480.734C335.239 479.567 335.024 478.258 335.024 476.806C335.024 475.366 335.239 474.063 335.667 472.896C336.108 471.73 336.72 470.742 337.506 469.933C338.303 469.123 339.261 468.499 340.38 468.058C341.499 467.618 342.743 467.398 344.111 467.398ZM344.111 482.876C345.635 482.876 346.76 482.364 347.486 481.34C348.223 480.317 348.592 478.817 348.592 476.842C348.592 474.866 348.223 473.36 347.486 472.325C346.76 471.29 345.635 470.772 344.111 470.772C342.564 470.772 341.416 471.295 340.666 472.343C339.928 473.378 339.559 474.878 339.559 476.842C339.559 478.805 339.928 480.305 340.666 481.34C341.416 482.364 342.564 482.876 344.111 482.876ZM372.291 467.683V486H369.595C369.012 486 368.643 485.732 368.488 485.197L368.184 483.733C367.435 484.494 366.607 485.113 365.703 485.589C364.798 486.054 363.733 486.286 362.507 486.286C361.508 486.286 360.621 486.119 359.847 485.786C359.086 485.441 358.443 484.959 357.919 484.34C357.396 483.721 356.997 482.989 356.723 482.144C356.461 481.287 356.33 480.347 356.33 479.323V467.683H360.74V479.323C360.74 480.442 360.996 481.311 361.508 481.93C362.031 482.537 362.811 482.84 363.846 482.84C364.608 482.84 365.322 482.673 365.989 482.34C366.655 481.995 367.286 481.525 367.881 480.93V467.683H372.291ZM387.838 471.254C387.719 471.444 387.594 471.581 387.464 471.664C387.333 471.736 387.166 471.772 386.964 471.772C386.749 471.772 386.517 471.712 386.267 471.593C386.029 471.474 385.75 471.343 385.428 471.2C385.107 471.046 384.738 470.909 384.321 470.79C383.917 470.671 383.435 470.611 382.875 470.611C382.007 470.611 381.322 470.796 380.822 471.165C380.334 471.533 380.09 472.016 380.09 472.611C380.09 473.003 380.215 473.337 380.465 473.61C380.727 473.872 381.066 474.104 381.483 474.307C381.911 474.509 382.393 474.693 382.929 474.86C383.465 475.015 384.006 475.187 384.554 475.378C385.113 475.568 385.66 475.788 386.196 476.038C386.732 476.276 387.208 476.586 387.624 476.967C388.053 477.336 388.392 477.782 388.642 478.306C388.904 478.829 389.035 479.46 389.035 480.198C389.035 481.079 388.874 481.894 388.553 482.644C388.243 483.382 387.779 484.024 387.16 484.572C386.541 485.107 385.773 485.53 384.857 485.839C383.953 486.137 382.905 486.286 381.715 486.286C381.084 486.286 380.465 486.226 379.858 486.107C379.263 486 378.686 485.845 378.127 485.643C377.579 485.441 377.067 485.203 376.591 484.929C376.127 484.655 375.717 484.358 375.359 484.036L376.377 482.358C376.508 482.156 376.663 482.001 376.841 481.894C377.02 481.787 377.246 481.733 377.52 481.733C377.793 481.733 378.049 481.811 378.287 481.965C378.537 482.12 378.823 482.287 379.144 482.465C379.466 482.644 379.84 482.81 380.269 482.965C380.709 483.12 381.263 483.197 381.929 483.197C382.453 483.197 382.899 483.138 383.268 483.019C383.649 482.888 383.958 482.721 384.196 482.519C384.446 482.316 384.625 482.084 384.732 481.823C384.851 481.549 384.911 481.269 384.911 480.983C384.911 480.555 384.78 480.204 384.518 479.93C384.268 479.656 383.929 479.418 383.5 479.216C383.084 479.014 382.602 478.835 382.054 478.68C381.519 478.514 380.965 478.335 380.394 478.145C379.835 477.954 379.281 477.734 378.734 477.484C378.198 477.223 377.716 476.895 377.288 476.502C376.871 476.11 376.532 475.628 376.27 475.056C376.02 474.485 375.895 473.795 375.895 472.986C375.895 472.236 376.044 471.522 376.341 470.843C376.639 470.165 377.073 469.576 377.645 469.076C378.228 468.564 378.948 468.159 379.805 467.862C380.674 467.552 381.673 467.398 382.804 467.398C384.066 467.398 385.214 467.606 386.25 468.023C387.285 468.439 388.148 468.987 388.838 469.665L387.838 471.254ZM404.154 474.735C404.154 474.164 404.071 473.628 403.904 473.128C403.749 472.617 403.511 472.17 403.19 471.789C402.869 471.409 402.458 471.111 401.958 470.897C401.47 470.671 400.899 470.558 400.244 470.558C398.971 470.558 397.965 470.921 397.227 471.647C396.501 472.373 396.037 473.402 395.835 474.735H404.154ZM395.745 477.395C395.817 478.335 395.983 479.151 396.245 479.841C396.507 480.519 396.852 481.085 397.281 481.537C397.709 481.977 398.215 482.31 398.798 482.537C399.393 482.751 400.048 482.858 400.762 482.858C401.476 482.858 402.089 482.775 402.601 482.608C403.124 482.441 403.577 482.257 403.958 482.055C404.35 481.852 404.69 481.668 404.975 481.501C405.273 481.335 405.558 481.251 405.832 481.251C406.201 481.251 406.475 481.388 406.653 481.662L407.921 483.269C407.433 483.84 406.885 484.322 406.278 484.715C405.671 485.095 405.035 485.405 404.368 485.643C403.714 485.869 403.041 486.03 402.351 486.125C401.672 486.22 401.012 486.268 400.369 486.268C399.096 486.268 397.912 486.06 396.817 485.643C395.722 485.214 394.769 484.59 393.96 483.768C393.151 482.935 392.514 481.912 392.05 480.698C391.586 479.472 391.354 478.056 391.354 476.449C391.354 475.199 391.556 474.027 391.961 472.932C392.365 471.825 392.943 470.867 393.692 470.058C394.454 469.236 395.376 468.588 396.46 468.112C397.554 467.636 398.786 467.398 400.155 467.398C401.309 467.398 402.375 467.582 403.351 467.951C404.327 468.32 405.166 468.862 405.868 469.576C406.57 470.278 407.117 471.147 407.51 472.182C407.915 473.206 408.117 474.378 408.117 475.699C408.117 476.366 408.046 476.818 407.903 477.056C407.76 477.282 407.486 477.395 407.082 477.395H395.745ZM429.785 478.181C428.511 478.24 427.44 478.353 426.571 478.52C425.702 478.675 425.006 478.877 424.482 479.127C423.959 479.377 423.584 479.668 423.358 480.002C423.132 480.335 423.018 480.698 423.018 481.091C423.018 481.864 423.245 482.418 423.697 482.751C424.161 483.084 424.762 483.251 425.5 483.251C426.405 483.251 427.184 483.09 427.839 482.769C428.505 482.435 429.154 481.936 429.785 481.269V478.181ZM419.68 470.236C421.787 468.308 424.322 467.344 427.285 467.344C428.356 467.344 429.314 467.523 430.159 467.88C431.005 468.225 431.719 468.713 432.302 469.344C432.885 469.962 433.325 470.706 433.623 471.575C433.932 472.444 434.087 473.396 434.087 474.432V486H432.088C431.671 486 431.35 485.94 431.124 485.821C430.897 485.691 430.719 485.435 430.588 485.054L430.195 483.733C429.731 484.149 429.279 484.518 428.838 484.84C428.398 485.149 427.94 485.411 427.464 485.625C426.988 485.839 426.476 486 425.928 486.107C425.393 486.226 424.798 486.286 424.143 486.286C423.37 486.286 422.655 486.184 422.001 485.982C421.346 485.768 420.781 485.453 420.305 485.036C419.829 484.619 419.46 484.102 419.198 483.483C418.936 482.864 418.805 482.144 418.805 481.323C418.805 480.858 418.883 480.4 419.037 479.948C419.192 479.484 419.442 479.043 419.787 478.627C420.144 478.21 420.602 477.818 421.162 477.449C421.721 477.08 422.406 476.758 423.215 476.485C424.036 476.211 424.988 475.991 426.071 475.824C427.154 475.646 428.392 475.538 429.785 475.503V474.432C429.785 473.206 429.523 472.301 428.999 471.718C428.475 471.123 427.72 470.825 426.732 470.825C426.018 470.825 425.423 470.909 424.947 471.075C424.482 471.242 424.072 471.432 423.715 471.647C423.358 471.849 423.03 472.033 422.733 472.2C422.447 472.367 422.126 472.45 421.769 472.45C421.459 472.45 421.198 472.373 420.983 472.218C420.769 472.051 420.596 471.861 420.466 471.647L419.68 470.236ZM442.364 469.933C442.733 469.564 443.12 469.225 443.524 468.915C443.941 468.594 444.375 468.326 444.828 468.112C445.292 467.886 445.786 467.713 446.309 467.594C446.833 467.463 447.404 467.398 448.023 467.398C449.023 467.398 449.91 467.57 450.683 467.915C451.457 468.249 452.1 468.725 452.611 469.344C453.135 469.951 453.528 470.683 453.79 471.539C454.063 472.384 454.2 473.319 454.2 474.342V486H449.791V474.342C449.791 473.224 449.535 472.361 449.023 471.754C448.511 471.135 447.732 470.825 446.684 470.825C445.923 470.825 445.208 470.998 444.542 471.343C443.875 471.688 443.245 472.158 442.65 472.753V486H438.24V467.683H440.936C441.507 467.683 441.882 467.951 442.06 468.487L442.364 469.933ZM469.891 472.361C469.391 471.754 468.844 471.325 468.248 471.075C467.665 470.825 467.034 470.7 466.356 470.7C465.69 470.7 465.089 470.825 464.553 471.075C464.017 471.325 463.559 471.706 463.178 472.218C462.797 472.718 462.506 473.36 462.304 474.146C462.101 474.92 462 475.836 462 476.895C462 477.966 462.083 478.877 462.25 479.627C462.429 480.365 462.678 480.972 463 481.448C463.321 481.912 463.714 482.251 464.178 482.465C464.642 482.668 465.16 482.769 465.731 482.769C466.648 482.769 467.427 482.578 468.07 482.197C468.713 481.817 469.32 481.275 469.891 480.573V472.361ZM474.3 459.471V486H471.605C471.022 486 470.653 485.732 470.498 485.197L470.123 483.429C469.385 484.274 468.534 484.959 467.57 485.482C466.618 486.006 465.505 486.268 464.232 486.268C463.232 486.268 462.315 486.06 461.482 485.643C460.649 485.226 459.929 484.625 459.322 483.84C458.727 483.042 458.263 482.061 457.93 480.894C457.608 479.728 457.448 478.395 457.448 476.895C457.448 475.538 457.632 474.277 458.001 473.11C458.37 471.944 458.9 470.932 459.59 470.076C460.28 469.219 461.107 468.552 462.071 468.076C463.035 467.588 464.119 467.344 465.321 467.344C466.344 467.344 467.219 467.505 467.945 467.826C468.671 468.147 469.32 468.582 469.891 469.129V459.471H474.3ZM487.334 486V467.683H490.03C490.601 467.683 490.976 467.951 491.155 468.487L491.441 469.843C491.762 469.486 492.095 469.159 492.44 468.862C492.797 468.564 493.172 468.308 493.565 468.094C493.97 467.88 494.398 467.713 494.85 467.594C495.315 467.463 495.82 467.398 496.368 467.398C497.522 467.398 498.468 467.713 499.206 468.344C499.956 468.963 500.516 469.79 500.885 470.825C501.17 470.218 501.527 469.701 501.956 469.272C502.384 468.832 502.854 468.475 503.366 468.201C503.878 467.927 504.419 467.725 504.991 467.594C505.574 467.463 506.157 467.398 506.74 467.398C507.752 467.398 508.65 467.552 509.436 467.862C510.221 468.171 510.882 468.624 511.418 469.219C511.953 469.814 512.358 470.54 512.631 471.397C512.917 472.254 513.06 473.235 513.06 474.342V486H508.65V474.342C508.65 473.176 508.394 472.301 507.883 471.718C507.371 471.123 506.621 470.825 505.633 470.825C505.181 470.825 504.759 470.903 504.366 471.057C503.985 471.212 503.646 471.438 503.348 471.736C503.063 472.021 502.836 472.384 502.67 472.825C502.503 473.265 502.42 473.771 502.42 474.342V486H497.992V474.342C497.992 473.116 497.742 472.224 497.243 471.664C496.755 471.105 496.035 470.825 495.082 470.825C494.44 470.825 493.839 470.986 493.279 471.307C492.732 471.617 492.22 472.045 491.744 472.593V486H487.334ZM525.356 467.398C526.713 467.398 527.945 467.618 529.052 468.058C530.171 468.499 531.123 469.123 531.908 469.933C532.706 470.742 533.319 471.73 533.747 472.896C534.176 474.063 534.39 475.366 534.39 476.806C534.39 478.258 534.176 479.567 533.747 480.734C533.319 481.9 532.706 482.894 531.908 483.715C531.123 484.536 530.171 485.167 529.052 485.607C527.945 486.048 526.713 486.268 525.356 486.268C523.988 486.268 522.744 486.048 521.625 485.607C520.506 485.167 519.548 484.536 518.751 483.715C517.965 482.894 517.353 481.9 516.912 480.734C516.484 479.567 516.269 478.258 516.269 476.806C516.269 475.366 516.484 474.063 516.912 472.896C517.353 471.73 517.965 470.742 518.751 469.933C519.548 469.123 520.506 468.499 521.625 468.058C522.744 467.618 523.988 467.398 525.356 467.398ZM525.356 482.876C526.88 482.876 528.005 482.364 528.731 481.34C529.468 480.317 529.837 478.817 529.837 476.842C529.837 474.866 529.468 473.36 528.731 472.325C528.005 471.29 526.88 470.772 525.356 470.772C523.809 470.772 522.661 471.295 521.911 472.343C521.173 473.378 520.804 474.878 520.804 476.842C520.804 478.805 521.173 480.305 521.911 481.34C522.661 482.364 523.809 482.876 525.356 482.876ZM541.914 470.861C542.485 469.766 543.163 468.909 543.949 468.29C544.734 467.66 545.663 467.344 546.734 467.344C547.579 467.344 548.257 467.529 548.769 467.898L548.483 471.2C548.424 471.414 548.334 471.569 548.215 471.664C548.108 471.748 547.96 471.789 547.769 471.789C547.591 471.789 547.323 471.76 546.966 471.7C546.621 471.641 546.281 471.611 545.948 471.611C545.46 471.611 545.026 471.682 544.645 471.825C544.264 471.968 543.919 472.176 543.61 472.45C543.312 472.712 543.044 473.033 542.806 473.414C542.58 473.795 542.366 474.229 542.163 474.717V486H537.754V467.683H540.342C540.795 467.683 541.11 467.767 541.289 467.933C541.467 468.088 541.586 468.374 541.646 468.79L541.914 470.861ZM562.351 474.735C562.351 474.164 562.268 473.628 562.101 473.128C561.946 472.617 561.708 472.17 561.387 471.789C561.066 471.409 560.655 471.111 560.155 470.897C559.667 470.671 559.096 470.558 558.441 470.558C557.168 470.558 556.162 470.921 555.424 471.647C554.698 472.373 554.234 473.402 554.032 474.735H562.351ZM553.942 477.395C554.014 478.335 554.181 479.151 554.442 479.841C554.704 480.519 555.049 481.085 555.478 481.537C555.906 481.977 556.412 482.31 556.995 482.537C557.59 482.751 558.245 482.858 558.959 482.858C559.673 482.858 560.286 482.775 560.798 482.608C561.322 482.441 561.774 482.257 562.155 482.055C562.547 481.852 562.887 481.668 563.172 481.501C563.47 481.335 563.755 481.251 564.029 481.251C564.398 481.251 564.672 481.388 564.85 481.662L566.118 483.269C565.63 483.84 565.082 484.322 564.475 484.715C563.868 485.095 563.232 485.405 562.565 485.643C561.911 485.869 561.238 486.03 560.548 486.125C559.87 486.22 559.209 486.268 558.566 486.268C557.293 486.268 556.109 486.06 555.014 485.643C553.919 485.214 552.967 484.59 552.157 483.768C551.348 482.935 550.711 481.912 550.247 480.698C549.783 479.472 549.551 478.056 549.551 476.449C549.551 475.199 549.753 474.027 550.158 472.932C550.562 471.825 551.14 470.867 551.889 470.058C552.651 469.236 553.574 468.588 554.657 468.112C555.752 467.636 556.983 467.398 558.352 467.398C559.507 467.398 560.572 467.582 561.548 467.951C562.524 468.32 563.363 468.862 564.065 469.576C564.767 470.278 565.315 471.147 565.707 472.182C566.112 473.206 566.314 474.378 566.314 475.699C566.314 476.366 566.243 476.818 566.1 477.056C565.957 477.282 565.684 477.395 565.279 477.395H553.942Z" fill="white"/>
</svg>
